<svg width="27" height="27" viewBox="0 0 27 27" fill="none" xmlns="http://www.w3.org/2000/svg">
<path d="M19.9691 14.4641H14.4649V19.9683C14.4649 20.5738 13.9695 21.0692 13.364 21.0692C12.7585 21.0692 12.2631 20.5738 12.2631 19.9683V14.4641H6.75887C6.1534 14.4641 5.65802 13.9687 5.65802 13.3632C5.65802 12.7577 6.1534 12.2624 6.75887 12.2624H12.2631V6.75808C12.2631 6.15261 12.7585 5.65723 13.364 5.65723C13.9695 5.65723 14.4649 6.15261 14.4649 6.75808V12.2624H19.9691C20.5746 12.2624 21.07 12.7577 21.07 13.3632C21.07 13.9687 20.5746 14.4641 19.9691 14.4641Z" fill="#878787"/>
</svg>
