<svg width="20" height="20" viewBox="0 0 20 20" fill="none" xmlns="http://www.w3.org/2000/svg">
<path d="M12.5 6.40625H3.75C3.45992 6.40625 3.18172 6.52148 2.9766 6.7266C2.77148 6.93172 2.65625 7.20992 2.65625 7.5V16.25C2.65625 16.5401 2.77148 16.8183 2.9766 17.0234C3.18172 17.2285 3.45992 17.3438 3.75 17.3438H12.5C12.7901 17.3438 13.0683 17.2285 13.2734 17.0234C13.4785 16.8183 13.5938 16.5401 13.5938 16.25V7.5C13.5938 7.20992 13.4785 6.93172 13.2734 6.7266C13.0683 6.52148 12.7901 6.40625 12.5 6.40625ZM12.6562 16.25C12.6562 16.2914 12.6398 16.3312 12.6105 16.3605C12.5812 16.3898 12.5414 16.4062 12.5 16.4062H3.75C3.70856 16.4062 3.66882 16.3898 3.63951 16.3605C3.61021 16.3312 3.59375 16.2914 3.59375 16.25V7.5C3.59375 7.45856 3.61021 7.41882 3.63951 7.38951C3.66882 7.36021 3.70856 7.34375 3.75 7.34375H12.5C12.5414 7.34375 12.5812 7.36021 12.6105 7.38951C12.6398 7.41882 12.6562 7.45856 12.6562 7.5V16.25ZM10.7812 3.125C10.7812 3.00068 10.8306 2.88145 10.9185 2.79354C11.0065 2.70564 11.1257 2.65625 11.25 2.65625H12.5C12.6243 2.65625 12.7435 2.70564 12.8315 2.79354C12.9194 2.88145 12.9688 3.00068 12.9688 3.125C12.9688 3.24932 12.9194 3.36855 12.8315 3.45646C12.7435 3.54436 12.6243 3.59375 12.5 3.59375H11.25C11.1257 3.59375 11.0065 3.54436 10.9185 3.45646C10.8306 3.36855 10.7812 3.24932 10.7812 3.125ZM17.3438 3.75V4.375C17.3438 4.49932 17.2944 4.61855 17.2065 4.70646C17.1185 4.79436 16.9993 4.84375 16.875 4.84375C16.7507 4.84375 16.6315 4.79436 16.5435 4.70646C16.4556 4.61855 16.4062 4.49932 16.4062 4.375V3.75C16.4062 3.70856 16.3898 3.66882 16.3605 3.63951C16.3312 3.61021 16.2914 3.59375 16.25 3.59375H15.625C15.5007 3.59375 15.3815 3.54436 15.2935 3.45646C15.2056 3.36855 15.1562 3.24932 15.1562 3.125C15.1562 3.00068 15.2056 2.88145 15.2935 2.79354C15.3815 2.70564 15.5007 2.65625 15.625 2.65625H16.25C16.5401 2.65625 16.8183 2.77148 17.0234 2.9766C17.2285 3.18172 17.3438 3.45992 17.3438 3.75ZM17.3438 7.5V8.75C17.3438 8.87432 17.2944 8.99355 17.2065 9.08146C17.1185 9.16936 16.9993 9.21875 16.875 9.21875C16.7507 9.21875 16.6315 9.16936 16.5435 9.08146C16.4556 8.99355 16.4062 8.87432 16.4062 8.75V7.5C16.4062 7.37568 16.4556 7.25645 16.5435 7.16854C16.6315 7.08064 16.7507 7.03125 16.875 7.03125C16.9993 7.03125 17.1185 7.08064 17.2065 7.16854C17.2944 7.25645 17.3438 7.37568 17.3438 7.5ZM17.3438 11.875V12.5C17.3438 12.7901 17.2285 13.0683 17.0234 13.2734C16.8183 13.4785 16.5401 13.5938 16.25 13.5938H15.625C15.5007 13.5938 15.3815 13.5444 15.2935 13.4565C15.2056 13.3685 15.1562 13.2493 15.1562 13.125C15.1562 13.0007 15.2056 12.8815 15.2935 12.7935C15.3815 12.7056 15.5007 12.6562 15.625 12.6562H16.25C16.2914 12.6562 16.3312 12.6398 16.3605 12.6105C16.3898 12.5812 16.4062 12.5414 16.4062 12.5V11.875C16.4062 11.7507 16.4556 11.6315 16.5435 11.5435C16.6315 11.4556 16.7507 11.4062 16.875 11.4062C16.9993 11.4062 17.1185 11.4556 17.2065 11.5435C17.2944 11.6315 17.3438 11.7507 17.3438 11.875ZM6.40625 4.375V3.75C6.40625 3.45992 6.52148 3.18172 6.7266 2.9766C6.93172 2.77148 7.20992 2.65625 7.5 2.65625H8.125C8.24932 2.65625 8.36855 2.70564 8.45646 2.79354C8.54436 2.88145 8.59375 3.00068 8.59375 3.125C8.59375 3.24932 8.54436 3.36855 8.45646 3.45646C8.36855 3.54436 8.24932 3.59375 8.125 3.59375H7.5C7.45856 3.59375 7.41882 3.61021 7.38951 3.63951C7.36021 3.66882 7.34375 3.70856 7.34375 3.75V4.375C7.34375 4.49932 7.29436 4.61855 7.20646 4.70646C7.11855 4.79436 6.99932 4.84375 6.875 4.84375C6.75068 4.84375 6.63145 4.79436 6.54354 4.70646C6.45564 4.61855 6.40625 4.49932 6.40625 4.375Z" fill="#5E5E5E"/>
</svg>
