<svg width="20" height="20" viewBox="0 0 20 20" fill="none" xmlns="http://www.w3.org/2000/svg">
<path d="M6.24999 4.66675L4.16665 5.83342L5.33332 3.75008L4.16665 1.66675L6.24999 2.83341L8.33332 1.66675L7.16665 3.75008L8.33332 5.83342L6.24999 4.66675ZM16.25 12.8334L18.3333 11.6667L17.1667 13.7501L18.3333 15.8334L16.25 14.6667L14.1667 15.8334L15.3333 13.7501L14.1667 11.6667L16.25 12.8334ZM18.3333 1.66675L17.1667 3.75008L18.3333 5.83342L16.25 4.66675L14.1667 5.83342L15.3333 3.75008L14.1667 1.66675L16.25 2.83341L18.3333 1.66675ZM11.1167 10.6501L13.15 8.61675L11.3833 6.85008L9.34999 8.88341L11.1167 10.6501ZM11.975 6.07508L13.925 8.02508C14.25 8.33342 14.25 8.87508 13.925 9.20008L4.19999 18.9251C3.87499 19.2501 3.33332 19.2501 3.02499 18.9251L1.07499 16.9751C0.749988 16.6667 0.749988 16.1251 1.07499 15.8001L10.8 6.07508C11.125 5.75008 11.6667 5.75008 11.975 6.07508Z" fill="#5E5E5E"/>
</svg>
