<svg width="61" height="61" viewBox="0 0 61 61" fill="none" xmlns="http://www.w3.org/2000/svg">
<path d="M25.5 44.3747L21.075 48.6748C19.9146 49.8351 18.3409 50.4869 16.7 50.4869C15.059 50.4869 13.4853 49.8351 12.325 48.6748C11.1646 47.5144 10.5128 45.9407 10.5128 44.2997C10.5128 42.6588 11.1646 41.0851 12.325 39.9247L23.675 28.5497C24.789 27.4321 26.29 26.7854 27.8675 26.7436C29.445 26.7017 30.9782 27.2678 32.15 28.3247L32.45 28.5747C32.924 29.0389 33.5631 29.2957 34.2265 29.2886C34.8899 29.2816 35.5233 29.0113 35.9875 28.5372C36.4516 28.0632 36.7084 27.4241 36.7013 26.7607C36.6943 26.0973 36.424 25.4639 35.95 24.9997C35.8089 24.8173 35.6587 24.6421 35.5 24.4747C33.3658 22.618 30.6058 21.6419 27.7789 21.744C24.952 21.8461 22.2695 23.0189 20.275 25.0247L8.77496 36.3997C6.82085 38.5267 5.76401 41.3264 5.82514 44.2141C5.88628 47.1018 7.06066 49.8543 9.10304 51.8967C11.1454 53.939 13.8979 55.1134 16.7856 55.1746C19.6733 55.2357 22.473 54.1789 24.6 52.2248L28.925 47.9997C29.352 47.5339 29.5868 46.9236 29.582 46.2916C29.5772 45.6596 29.3333 45.0529 28.8992 44.5935C28.4652 44.1342 27.8733 43.8562 27.2426 43.8156C26.6119 43.775 25.9893 43.9748 25.5 44.3747ZM52.225 8.77475C50.1219 6.68477 47.2774 5.51172 44.3125 5.51172C41.3475 5.51172 38.503 6.68477 36.4 8.77475L32.075 12.9997C31.6479 13.4656 31.4132 14.0759 31.4179 14.7079C31.4227 15.3399 31.6667 15.9466 32.1007 16.406C32.5347 16.8653 33.1266 17.1433 33.7573 17.1839C34.388 17.2245 35.0106 17.0247 35.5 16.6247L39.825 12.3247C40.9853 11.1644 42.559 10.5126 44.2 10.5126C45.8409 10.5126 47.4146 11.1644 48.575 12.3247C49.7353 13.4851 50.3871 15.0588 50.3871 16.6997C50.3871 18.3407 49.7353 19.9144 48.575 21.0747L37.225 32.4497C36.1109 33.5674 34.6099 34.2141 33.0324 34.2559C31.4549 34.2978 29.9217 33.7317 28.75 32.6747L28.45 32.4247C27.9759 31.9606 27.3369 31.7038 26.6734 31.7109C26.01 31.7179 25.3766 31.9882 24.9125 32.4622C24.4483 32.9363 24.1915 33.5754 24.1986 34.2388C24.2056 34.9022 24.4759 35.5356 24.95 35.9997C25.1316 36.1855 25.3235 36.3608 25.525 36.5247C27.6616 38.3759 30.4205 39.3484 33.2457 39.2463C36.0709 39.1443 38.7524 37.9752 40.75 35.9747L52.125 24.5997C54.2283 22.5099 55.4193 19.6728 55.4381 16.7079C55.4568 13.7429 54.3017 10.891 52.225 8.77475Z" fill="#4B4B4B"/>
</svg>
