<svg width="12" height="12" viewBox="0 0 12 12" fill="none" xmlns="http://www.w3.org/2000/svg">
<path d="M11.2499 0.75852C11.1728 0.681267 11.0813 0.619977 10.9805 0.578159C10.8796 0.536341 10.7716 0.514816 10.6624 0.514816C10.5533 0.514816 10.4452 0.536341 10.3444 0.578159C10.2436 0.619977 10.152 0.681267 10.0749 0.75852L5.99994 4.82519L1.92494 0.750186C1.84779 0.673035 1.7562 0.611835 1.65539 0.57008C1.55459 0.528326 1.44655 0.506836 1.33744 0.506836C1.22833 0.506836 1.12029 0.528326 1.01949 0.57008C0.918686 0.611835 0.827094 0.673035 0.749942 0.750186C0.67279 0.827338 0.61159 0.91893 0.569836 1.01973C0.528082 1.12054 0.506592 1.22858 0.506592 1.33769C0.506592 1.4468 0.528082 1.55484 0.569836 1.65564C0.61159 1.75644 0.67279 1.84803 0.749942 1.92519L4.82494 6.00019L0.749942 10.0752C0.67279 10.1523 0.61159 10.2439 0.569836 10.3447C0.528082 10.4455 0.506592 10.5536 0.506592 10.6627C0.506592 10.7718 0.528082 10.8798 0.569836 10.9806C0.61159 11.0814 0.67279 11.173 0.749942 11.2502C0.827094 11.3273 0.918686 11.3885 1.01949 11.4303C1.12029 11.472 1.22833 11.4935 1.33744 11.4935C1.44655 11.4935 1.55459 11.472 1.65539 11.4303C1.7562 11.3885 1.84779 11.3273 1.92494 11.2502L5.99994 7.17519L10.0749 11.2502C10.1521 11.3273 10.2437 11.3885 10.3445 11.4303C10.4453 11.472 10.5533 11.4935 10.6624 11.4935C10.7715 11.4935 10.8796 11.472 10.9804 11.4303C11.0812 11.3885 11.1728 11.3273 11.2499 11.2502C11.3271 11.173 11.3883 11.0814 11.43 10.9806C11.4718 10.8798 11.4933 10.7718 11.4933 10.6627C11.4933 10.5536 11.4718 10.4455 11.43 10.3447C11.3883 10.2439 11.3271 10.1523 11.2499 10.0752L7.17494 6.00019L11.2499 1.92519C11.5666 1.60852 11.5666 1.07519 11.2499 0.75852Z" fill="#BDBDBD"/>
</svg>
