<svg width="20" height="20" viewBox="0 0 20 20" fill="none" xmlns="http://www.w3.org/2000/svg">
<g clip-path="url(#clip0_1510_652)">
<path d="M15.3429 15.3429L19.2857 19.2858M9.28572 17.8572C10.4113 17.8572 11.5259 17.6355 12.5659 17.2048C13.6058 16.774 14.5507 16.1426 15.3466 15.3467C16.1426 14.5508 16.7739 13.6059 17.2047 12.5659C17.6354 11.526 17.8572 10.4114 17.8572 9.28578C17.8572 8.16017 17.6354 7.04557 17.2047 6.00564C16.7739 4.96571 16.1426 4.0208 15.3466 3.22487C14.5507 2.42894 13.6058 1.79757 12.5659 1.36682C11.5259 0.936062 10.4113 0.714355 9.28572 0.714355C7.01244 0.714356 4.83226 1.61741 3.22481 3.22487C1.61735 4.83232 0.714294 7.0125 0.714294 9.28578C0.714294 11.5591 1.61735 13.7392 3.22481 15.3467C4.83226 16.9542 7.01244 17.8572 9.28572 17.8572Z" stroke="#5E5E5E" stroke-linecap="round" stroke-linejoin="round"/>
<path d="M4.92859 9.7544C4.40287 9.66298 4.40287 8.90869 4.92859 8.81726C5.85879 8.6548 6.7196 8.21918 7.40141 7.56587C8.08321 6.91256 8.55516 6.07112 8.75716 5.14869L8.78859 5.0044C8.90287 4.4844 9.64144 4.48155 9.76002 5.00012L9.79859 5.16869C10.0085 6.08773 10.4854 6.9242 11.1694 7.57289C11.8534 8.22158 12.714 8.65352 13.6429 8.8144C14.1714 8.90726 14.1714 9.6644 13.6429 9.75726C12.7143 9.9184 11.854 10.3505 11.1703 10.9991C10.4865 11.6478 10.0098 12.4841 9.80002 13.403L9.76144 13.5715C9.64287 14.0901 8.9043 14.0858 8.79002 13.5673L8.75859 13.4244C8.557 12.5013 8.08505 11.6591 7.40294 11.0052C6.72082 10.3513 5.85943 9.91681 4.92859 9.7544Z" stroke="#5E5E5E" stroke-linecap="round" stroke-linejoin="round"/>
</g>
<defs>
<clipPath id="clip0_1510_652">
<rect width="20" height="20" fill="white"/>
</clipPath>
</defs>
</svg>
