<svg width="17" height="17" viewBox="0 0 17 17" fill="none" xmlns="http://www.w3.org/2000/svg">
<path fill-rule="evenodd" clip-rule="evenodd" d="M10.7858 10.7026C11.2502 10.2383 11.6185 9.6871 11.8698 9.08048C12.1211 8.47385 12.2505 7.82366 12.2505 7.16703C12.2506 6.51041 12.1213 5.8602 11.87 5.25354C11.6188 4.64688 11.2505 4.09565 10.7862 3.63132C10.322 3.16699 9.77078 2.79865 9.16415 2.54733C8.55752 2.29602 7.90733 2.16665 7.25071 2.16661C5.92459 2.16653 4.65276 2.69325 3.715 3.6309C2.77724 4.56855 2.25036 5.84033 2.25028 7.16644C2.25021 8.49256 2.77693 9.76439 3.71458 10.7022C4.65223 11.6399 5.924 12.1668 7.25012 12.1669C8.57623 12.1669 9.84807 11.6402 10.7858 10.7026ZM11.9642 2.45257C13.1127 3.60106 13.8025 5.12931 13.9041 6.75038C14.0057 8.37146 13.512 9.97386 12.5158 11.2567C12.5292 11.2676 12.5408 11.2792 12.5542 11.2917L16.0892 14.8267C16.2455 14.983 16.3334 15.195 16.3335 15.416C16.3336 15.6371 16.2458 15.8491 16.0896 16.0055C15.9333 16.1619 15.7213 16.2497 15.5003 16.2498C15.2792 16.2499 15.0672 16.1622 14.9108 16.0059L11.375 12.4701C11.3629 12.4579 11.3513 12.4454 11.34 12.4326C10.0002 13.4703 8.31543 13.9589 6.62826 13.7991C4.94109 13.6392 3.3781 12.8429 2.25702 11.5719C1.13593 10.301 0.540882 8.65087 0.592827 6.95694C0.644771 5.26301 1.33981 3.65242 2.53666 2.45257C3.78688 1.20251 5.48245 0.500244 7.25041 0.500244C9.01838 0.500244 10.7139 1.20251 11.9642 2.45257ZM3.9175 6.3334V8.00007H10.5842V6.3334H3.9175Z" fill="#BDBDBD"/>
</svg>
